<?xml version="1.0" encoding="UTF-8"?>
<svg enable-background="new 0 0 452.739 452.739" version="1.1" viewBox="0 0 452.74 452.74" xml:space="preserve" xmlns="http://www.w3.org/2000/svg">
<path d="m403.11 16.447h-353.48c-27.419 0-49.63 22.224-49.63 49.63v224.92c0 27.406 22.211 49.63 49.63 49.63h19.225l-39.253 78.738c-2.809 4.41-2.14 10.158 1.586 13.783 2.125 2.095 4.905 3.143 7.699 3.143 2.097 0 4.25-0.611 6.128-1.863l163.53-93.801h194.56c27.42 0 49.63-22.224 49.63-49.63v-224.92c0-27.406-22.211-49.63-49.63-49.63zm-278.8 194.5c-18.225 0-33-14.775-33-33s14.775-33 33-33c18.226 0 33 14.775 33 33s-14.775 33-33 33zm102.06 0c-18.226 0-33-14.775-33-33s14.774-33 33-33c18.225 0 33 14.775 33 33s-14.775 33-33 33zm102.06 0c-18.225 0-33-14.775-33-33s14.775-33 33-33 33 14.775 33 33-14.774 33-33 33z" fill="#25a1da"/>
</svg>
